<svg width="22" height="23" viewBox="0 0 22 23" fill="none" xmlns="http://www.w3.org/2000/svg">
<path d="M5 11.5H6C7.10457 11.5 8 10.6046 8 9.5V9C8 8.17157 8.67157 7.5 9.5 7.5C10.3284 7.5 11 8.17157 11 9V14C11 14.8284 11.6716 15.5 12.5 15.5C13.3284 15.5 14 14.8284 14 14C14 13.1716 14.6716 12.5 15.5 12.5H17M5 21.5H17C19.2091 21.5 21 19.7091 21 17.5V5.5C21 3.29086 19.2091 1.5 17 1.5H5C2.79086 1.5 1 3.29086 1 5.5V17.5C1 19.7091 2.79086 21.5 5 21.5Z" stroke="#5C4DFF" stroke-width="1.5" stroke-linecap="round" stroke-linejoin="round"/>
</svg>
