<svg width="22" height="19" viewBox="0 0 22 19" fill="none" xmlns="http://www.w3.org/2000/svg">
<path opacity="0.4" fill-rule="evenodd" clip-rule="evenodd" d="M11 3.25C11.4142 3.25 11.75 3.58579 11.75 4V4.85352C12.9043 5.17998 13.75 6.24122 13.75 7.5C13.75 7.91421 13.4142 8.25 13 8.25C12.5858 8.25 12.25 7.91421 12.25 7.5C12.25 6.80964 11.6904 6.25 11 6.25C10.3096 6.25 9.75 6.80964 9.75 7.5C9.75 8.19036 10.3096 8.75 11 8.75C12.5188 8.75 13.75 9.98122 13.75 11.5C13.75 12.7588 12.9043 13.82 11.75 14.1465V15C11.75 15.4142 11.4142 15.75 11 15.75C10.5858 15.75 10.25 15.4142 10.25 15V14.1465C9.09575 13.82 8.25 12.7588 8.25 11.5C8.25 11.0858 8.58579 10.75 9 10.75C9.41421 10.75 9.75 11.0858 9.75 11.5C9.75 12.1904 10.3096 12.75 11 12.75C11.6904 12.75 12.25 12.1904 12.25 11.5C12.25 10.8096 11.6904 10.25 11 10.25C9.48122 10.25 8.25 9.01878 8.25 7.5C8.25 6.24122 9.09575 5.17998 10.25 4.85352V4C10.25 3.58579 10.5858 3.25 11 3.25Z" fill="#5C4DFF"/>
<path fill-rule="evenodd" clip-rule="evenodd" d="M2.88623 6.21859C4.18371 3.01328 7.32661 0.75 10.9999 0.75C15.3508 0.75 18.9599 3.92553 19.6362 8.08533L20.5499 7.4C20.8813 7.15147 21.3514 7.21863 21.5999 7.55C21.8484 7.88137 21.7813 8.35147 21.4499 8.6L20.4388 9.35836C19.6055 9.98333 18.4906 10.0839 17.5589 9.61803L16.6645 9.17082C16.294 8.98558 16.1439 8.53507 16.3291 8.16459C16.5143 7.79411 16.9648 7.64394 17.3353 7.82918L18.1393 8.23114C17.5393 4.83207 14.5711 2.25 10.9999 2.25C7.95848 2.25 5.35272 4.12306 4.27664 6.78141C4.12122 7.16536 3.68398 7.35062 3.30003 7.1952C2.91608 7.03978 2.73081 6.60254 2.88623 6.21859ZM2.32872 10.6794C2.29531 10.6926 2.26229 10.7073 2.22976 10.7236L1.33533 11.1708C0.964847 11.3561 0.514342 11.2059 0.3291 10.8354C0.143858 10.4649 0.294026 10.0144 0.66451 9.82918L1.55894 9.38197C2.49059 8.91614 3.60548 9.01667 4.43877 9.64164L5.44992 10.4C5.78129 10.6485 5.84845 11.1186 5.59992 11.45C5.35139 11.7814 4.88129 11.8485 4.54992 11.6L3.93611 11.1396C4.67922 14.3539 7.55975 16.75 10.9999 16.75C14.0414 16.75 16.6471 14.8769 17.7232 12.2186C17.8786 11.8346 18.3159 11.6494 18.6998 11.8048C19.0838 11.9602 19.269 12.3975 19.1136 12.7814C17.8161 15.9867 14.6732 18.25 10.9999 18.25C6.56738 18.25 2.90465 14.9541 2.32872 10.6794Z" fill="#5C4DFF"/>
</svg>
