<svg width="20" height="17" viewBox="0 0 20 17" fill="none" xmlns="http://www.w3.org/2000/svg">
<path opacity="0.4" d="M16 0.5C17.0764 0.5 17.951 1.35046 17.9951 2.41602H12.8994C11.7951 2.41618 10.8996 3.31171 10.8994 4.41602V13.5H2V2.5C2 1.39543 2.89543 0.5 4 0.5H16Z" fill="#5C4DFF"/>
<path d="M12 5.5C12 4.39543 12.8954 3.5 14 3.5H18C19.1046 3.5 20 4.39543 20 5.5V14.5C20 15.6046 19.1046 16.5 18 16.5H14C12.8954 16.5 12 15.6046 12 14.5V5.5Z" fill="#5C4DFF"/>
<path d="M11 13.5H1.5C0.671573 13.5 0 14.1716 0 15C0 15.8284 0.671573 16.5 1.5 16.5H11V13.5Z" fill="#5C4DFF"/>
</svg>
