<svg width="18" height="22" viewBox="0 0 18 22" fill="none" xmlns="http://www.w3.org/2000/svg">
<path opacity="0.4" d="M16 0.5H2C0.895431 0.5 0 1.39543 0 2.5V18.6994C0 19.8008 1.14741 20.5266 2.14262 20.0548L4.16507 19.0959C4.69479 18.8447 5.30803 18.8386 5.84263 19.0792L8.17927 20.1307C8.70122 20.3655 9.29878 20.3655 9.82073 20.1307L12.1574 19.0792C12.692 18.8386 13.3052 18.8447 13.8349 19.0959L15.8574 20.0548C16.8526 20.5266 18 19.8008 18 18.6994V2.5C18 1.39543 17.1046 0.5 16 0.5Z" fill="#5C4DFF"/>
<path fill-rule="evenodd" clip-rule="evenodd" d="M4.25 5.5C4.25 5.08579 4.58579 4.75 5 4.75H9C9.41421 4.75 9.75 5.08579 9.75 5.5C9.75 5.91421 9.41421 6.25 9 6.25H5C4.58579 6.25 4.25 5.91421 4.25 5.5ZM4.25 9.5C4.25 9.08579 4.58579 8.75 5 8.75H13C13.4142 8.75 13.75 9.08579 13.75 9.5C13.75 9.91421 13.4142 10.25 13 10.25H5C4.58579 10.25 4.25 9.91421 4.25 9.5ZM4.25 13.5C4.25 13.0858 4.58579 12.75 5 12.75H13C13.4142 12.75 13.75 13.0858 13.75 13.5C13.75 13.9142 13.4142 14.25 13 14.25H5C4.58579 14.25 4.25 13.9142 4.25 13.5Z" fill="#5C4DFF"/>
</svg>
